# xmcd
#
# Track frame offsets:
# 150
# 23071
# 39242
# 66123
# 92524
#
# Disc length: 1472 seconds
#
#
# Revision: 0
# Processed by: cddbd v1.5.2PL0 Copyright (c) Steve Scherf et al.
# Submitted via: FreeRIP 2.96 
#
DISCID=3005be05
DTITLE=Blues Unlimited - Blues Unlimited
DYEAR=1900
DGENRE=Blues
TTITLE0=Chickenhead
TTITLE1=Start it up
TTITLE2=Cadillac Hotel
TTITLE3=Angel Eyes
TTITLE4=All I ever wanted
EXTD=
EXTT0=
EXTT1=
EXTT2=
EXTT3=
EXTT4=
PLAYORDER=
